Coordinates
version=1
nRows=14
nColumns=24
inDegrees=yes

Units are S.I. units (second, meters, Newtons, ...)
Angles are in degrees.

endheader
time	pelvis_tilt	pelvis_list	pelvis_rotation	pelvis_tx	pelvis_ty	pelvis_tz	hip_flexion_r	hip_adduction_r	hip_rotation_r	knee_angle_r	ankle_angle_r	subtalar_angle_r	mtp_angle_r	hip_flexion_l	hip_adduction_l	hip_rotation_l	knee_angle_l	ankle_angle_l	subtalar_angle_l	mtp_angle_l	lumbar_extension	lumbar_bending	lumbar_rotation
      4.33000000	      5.78785629	     -3.59453968	    -11.93874487	     -0.34000336	      0.71463284	     -0.16541786	    -20.84725770	      3.43119721	     14.80224106	    -19.02791987	     25.22788585	    -11.02230173	      0.00000000	     14.64340342	     -6.21570644	     -4.14257956	      4.23668798	     -3.09988634	    -19.69941326	      0.00000000	    -26.19415161	     -5.52762459	     12.28850729
      4.34000000	      5.93166971	     -2.71340735	    -11.78215137	     -0.32540661	      0.71362507	     -0.16734256	    -20.67248541	      2.41466835	     13.86982436	    -21.44824193	     24.45426901	    -10.59475003	      0.00000000	     14.84263548	     -5.06811845	     -5.04960597	      2.60389477	     -5.46982426	    -22.24171691	      0.00000000	    -26.10689548	     -6.48663964	     11.81209576
      4.35000000	      6.12904909	     -1.61238584	    -11.41111190	     -0.31070497	      0.71291726	     -0.16944694	    -20.39296927	      1.37458811	     13.13158044	    -24.11419754	     22.71188237	    -11.39556802	      0.00000000	     15.13286266	     -3.65490371	     -5.78987581	      0.58744972	     -7.80009189	    -24.48210790	      0.00000000	    -26.09069980	     -7.63927085	     11.01427465
      4.36000000	      6.41097974	     -0.20769352	    -10.83477362	     -0.29600062	      0.71250113	     -0.17175859	    -19.85510135	      0.11280229	     11.84652060	    -27.24338037	     20.59974371	    -12.19040665	      0.00000000	     15.61578483	     -1.90688687	     -6.91313328	     -1.95006388	     -9.08648376	    -25.24823217	      0.00000000	    -26.21394110	     -9.07143526	      9.91580843
      4.37000000	      6.65701154	      1.32646709	    -10.11470547	     -0.28138039	      0.71224008	     -0.17411192	    -19.03070109	     -1.14705142	     10.47415124	    -30.71906915	     17.62783754	    -13.61013082	      0.00000000	     16.28291408	     -0.07193792	     -7.93743639	     -4.82934169	     -9.74481562	    -25.63070128	      0.00000000	    -26.38129754	    -10.60848784	      8.68453858
      4.38000000	      6.92754926	      2.93686979	     -9.25143241	     -0.26689007	      0.71215912	     -0.17645699	    -18.01201570	     -2.39588232	      8.98684955	    -34.46746010	     13.75612202	    -15.68090993	      0.00000000	     17.16616823	      1.73943536	     -9.56075598	     -8.23393856	     -8.51089389	    -24.12248017	      0.00000000	    -26.69599055	    -12.18908372	      7.27585195
      4.39000000	      7.12827033	      4.47685713	     -8.35891396	     -0.25257614	      0.71208844	     -0.17869057	    -16.67128637	     -3.57005958	      7.43709939	    -38.49606861	      9.22316608	    -17.97474990	      0.00000000	     18.18007391	      3.31079555	    -11.49631151	    -11.91963559	     -6.15023025	    -21.64717337	      0.00000000	    -27.03909651	    -13.66517624	      5.91133072
      4.40000000	      7.28554876	      5.86426095	     -7.50561898	     -0.23844008	      0.71204254	     -0.18080572	    -15.06729593	     -4.63203019	      5.99081264	    -42.70246891	      4.10567287	    -20.54392950	      0.00000000	     19.02434606	      4.64572745	    -13.16268023	    -15.41624894	     -3.41999550	    -19.26573576	      0.00000000	    -27.40803219	    -14.95543016	      4.65797654
      4.41000000	      7.43275068	      7.10052438	     -6.78781535	     -0.22450362	      0.71213205	     -0.18281681	    -13.23299984	     -5.64832755	      4.73834535	    -47.00148377	     -1.27987689	    -23.08214418	      0.00000000	     19.48444031	      5.85107060	    -14.38852917	    -18.33638761	     -0.69458697	    -17.30022446	      0.00000000	    -27.80323342	    -16.07700378	      3.60110987
      4.42000000	      7.59814841	      8.21296332	     -6.25869816	     -0.21082322	      0.71243630	     -0.18473442	    -11.18572678	     -6.66602826	      3.74257693	    -51.33806567	     -6.41199665	    -25.29194964	      0.00000000	     19.50471958	      7.00128387	    -15.29506107	    -20.55465414	      1.86452172	    -15.70360746	      0.00000000	    -28.21300723	    -17.06904386	      2.76177641
      4.43000000	      7.75516330	      9.16269078	     -5.93926578	     -0.19746223	      0.71299320	     -0.18658562	     -8.93775364	     -7.58746623	      3.14175775	    -55.58230951	    -10.92602776	    -27.30213192	      0.00000000	     19.09868726	      8.15044168	    -15.61556085	    -21.97315199	      3.95149799	    -15.12158979	      0.00000000	    -28.59120036	    -17.89489918	      2.15259976
      4.44000000	      7.92280304	      9.94986386	     -5.81988292	     -0.18443738	      0.71387818	     -0.18833106	     -6.54116689	     -8.37908673	      2.89921673	    -59.63101394	    -14.36401809	    -28.78125567	      0.00000000	     18.35084386	      9.22288953	    -15.75135670	    -22.77143277	      5.72066909	    -14.79107124	      0.00000000	    -28.94760159	    -18.55809418	      1.69431820
      4.45000000	      8.08547493	     10.55342876	     -5.87388438	     -0.17172599	      0.71511443	     -0.18996729	     -4.04148331	     -8.95412964	      3.00331191	    -63.36025693	    -16.47729320	    -29.74372151	      0.00000000	     17.32451057	     10.21063063	    -15.60988601	    -23.02349020	      7.10675788	    -14.83728294	      0.00000000	    -29.24609990	    -19.04188997	      1.42706657
      4.46000000	      8.28223450	     10.96823448	     -6.01161637	     -0.15926165	      0.71673302	     -0.19153223	     -1.57534309	     -9.28305714	      3.29176681	    -66.64302913	    -17.06108122	    -30.19395005	      0.00000000	     16.07417887	     11.09592626	    -15.18536479	    -22.93429678	      8.29060765	    -15.06922851	      0.00000000	    -29.53877249	    -19.31726905	      1.28166470
